<?xml version="1.0" ?>
<!DOCTYPE svg  PUBLIC '-//W3C//DTD SVG 1.1//EN'  'http://www.w3.org/Graphics/SVG/1.1/DTD/svg11.dtd'>
<!-- Uploaded to: SVG Repo, www.svgrepo.com, Generator: SVG Repo Mixer Tools -->
<svg fill="#000000" width="800px" height="800px" viewBox="0 0 64 64" style="fill-rule:evenodd;clip-rule:evenodd;stroke-linejoin:round;stroke-miterlimit:2;" version="1.1" xml:space="preserve" xmlns="http://www.w3.org/2000/svg" xmlns:serif="http://www.serif.com/" xmlns:xlink="http://www.w3.org/1999/xlink">
<g id="Expanded">
<path d="M24.5,21l-7.191,0c-0.262,-0 -0.513,0.103 -0.7,0.286c-4.078,3.994 -6.609,9.561 -6.609,15.714c-0,12.142 9.858,22 22,22c12.142,-0 22,-9.858 22,-22c0,-6.153 -2.531,-11.72 -6.609,-15.714c-0.187,-0.183 -0.438,-0.286 -0.7,-0.286l-7.191,-0l0,-8l9.5,-0c1.657,0 3,-1.343 3,-3l0,-6c0,-0.552 -0.448,-1 -1,-1l-38,0c-0.552,0 -1,0.448 -1,1l0,6c0,1.657 1.343,3 3,3l9.5,0l0,8Zm19.514,31.986c0,-0.005 0,-0.009 0,-0.014l0,-6.972c0,-3.183 -1.264,-6.235 -3.515,-8.485c-2.25,-2.251 -5.302,-3.515 -8.485,-3.515c-0.009,-0 -0.019,-0 -0.028,-0c-3.183,-0 -6.235,1.264 -8.485,3.515c-2.251,2.25 -3.515,5.302 -3.515,8.485c-0,3.809 -0,6.972 -0,6.972c-0,0.005 -0,0.009 -0,0.014c3.346,2.52 7.507,4.014 12.014,4.014c4.507,-0 8.668,-1.494 12.014,-4.014Zm-12.014,-16.789c-4.967,0 -9,4.033 -9,9c0,4.967 4.033,9 9,9c4.967,0 9,-4.033 9,-9c0,-4.967 -4.033,-9 -9,-9Zm0,2c3.863,0 7,3.137 7,7c0,3.864 -3.137,7 -7,7c-3.863,0 -7,-3.136 -7,-7c0,-3.863 3.137,-7 7,-7Zm14.014,13.067c3.694,-3.631 5.986,-8.682 5.986,-14.264c0,-5.448 -2.184,-10.391 -5.722,-13.999l-0.001,-0.001c0,-0 -28.554,0 -28.555,0.001c-3.538,3.608 -5.722,8.551 -5.722,13.999c0,5.582 2.292,10.633 5.986,14.264l-0,-5.264c-0,-3.713 1.475,-7.274 4.1,-9.899c2.626,-2.626 6.187,-4.101 9.9,-4.101c0.009,-0 0.019,-0 0.028,-0c3.713,-0 7.274,1.475 9.9,4.101c2.625,2.625 4.1,6.186 4.1,9.899l0,5.264Zm-12.596,-3.717c0.105,-0.118 0.083,-0.303 -0.049,-0.391c-0.394,-0.265 -0.866,-0.437 -1.373,-0.437c-0.506,-0 -0.976,0.171 -1.37,0.435c-0.132,0.088 -0.155,0.274 -0.049,0.392l1.229,1.369c0.102,0.113 0.279,0.113 0.381,0l1.231,-1.368Zm-1.421,-1.967c0.828,-0 1.592,0.274 2.207,0.734c0.109,0.081 0.258,0.072 0.349,-0.028l0.44,-0.489c0.099,-0.111 0.088,-0.286 -0.028,-0.376c-0.822,-0.638 -1.85,-1.045 -2.968,-1.045c-1.117,0 -2.144,0.406 -2.964,1.041c-0.117,0.091 -0.127,0.266 -0.028,0.376l0.439,0.49c0.09,0.101 0.24,0.11 0.348,0.029c0.615,-0.459 1.378,-0.732 2.205,-0.732Zm-0,-2.376c1.438,0 2.756,0.503 3.796,1.337c0.107,0.086 0.26,0.077 0.352,-0.025l0.396,-0.44c0.098,-0.109 0.088,-0.282 -0.025,-0.375c-1.235,-1.01 -2.805,-1.701 -4.519,-1.701c-1.712,-0 -3.28,0.689 -4.512,1.696c-0.114,0.093 -0.124,0.265 -0.026,0.374l0.395,0.441c0.092,0.102 0.245,0.111 0.351,0.026c1.039,-0.832 2.355,-1.333 3.792,-1.333Zm13.003,-17.204c0.552,-0 1,0.448 1,1c0,0.552 -0.448,1 -1,1c-0.552,-0 -1,-0.448 -1,-1c0,-0.552 0.448,-1 1,-1Zm-4,-0c0.552,-0 1,0.448 1,1c0,0.552 -0.448,1 -1,1c-0.552,-0 -1,-0.448 -1,-1c0,-0.552 0.448,-1 1,-1Zm-3.5,-5l-11,-0c0,-0 0,-8 0,-8l11,0l0,8Zm-7.75,-3l4.5,-0c0.552,-0 1,-0.448 1,-1c-0,-0.552 -0.448,-1 -1,-1l-4.5,-0c-0.552,-0 -1,0.448 -1,1c-0,0.552 0.448,1 1,1Zm-8.75,-13l-7,0c0,0 0,5 0,5c0,0.552 0.448,1 1,1l34,0c0.552,0 1,-0.448 1,-1l-0,-5l-7,0l0,1c0,0.796 -0.316,1.559 -0.879,2.121c-0.562,0.563 -1.325,0.879 -2.121,0.879c-3.832,-0 -12.168,-0 -16,-0c-0.796,0 -1.559,-0.316 -2.121,-0.879c-0.563,-0.562 -0.879,-1.325 -0.879,-2.121l0,-1Zm2,0l18,0l0,1c0,0.265 -0.105,0.52 -0.293,0.707c-0.187,0.188 -0.442,0.293 -0.707,0.293l-16,-0c-0.265,0 -0.52,-0.105 -0.707,-0.293c-0.188,-0.187 -0.293,-0.442 -0.293,-0.707l0,-1Z" id="Wifi"/>
</g>
</svg>